<svg xmlns="http://www.w3.org/2000/svg" width="23.999" height="23.999" viewBox="0 0 23.999 23.999">
  <defs>
    <style>
      .cls-1 {
        fill: #f7f7ff;
      }
    </style>
  </defs>
  <path id="Exclusion_2" data-name="Exclusion 2" class="cls-1" d="M17,24H7a7.008,7.008,0,0,1-7-7V7A7.008,7.008,0,0,1,7,0H17a7.008,7.008,0,0,1,7,7V17A7.008,7.008,0,0,1,17,24ZM16.2,9.39h0V17.5c0,.091.043.134.137.134h1.594c.1,0,.119-.035.119-.12V9.4c0-.085-.035-.119-.123-.119H16.315c-.085,0-.119.032-.119.113l.007,0ZM8.582,14.44h3.3l.849,3.1c.016.063.06.089.152.089h1.7a.091.091,0,0,0,.075-.027.13.13,0,0,0,.011-.109l-3.276-11.1c-.017-.087-.053-.1-.12-.1H9.113c-.054,0-.085.037-.085.1a3.143,3.143,0,0,1-.1.857L6.006,17.476c-.008.059-.009.1.012.128s.043.025.091.025h1.51c.1,0,.134-.022.152-.105l.814-3.083Zm7.5-7.386A.97.97,0,0,0,17.115,8.1a.985.985,0,0,0,1.07-1.052,1.052,1.052,0,1,0-2.1,0Zm-4.624,5.716H9.025l0-.009c.43-1.615.965-3.624,1.186-4.825h.017c.181.853.574,2.351.889,3.554.133.508.248.947.333,1.279Z"/>
</svg>
