<svg xmlns="http://www.w3.org/2000/svg" viewBox="0 0 273.42 114.6"><defs><style>.cls-1{isolation:isolate;}.cls-2{fill:#f8f8f8;}</style></defs><g id="Calque_2" data-name="Calque 2"><g id="Calque_1-2" data-name="Calque 1"><g class="cls-1"><path class="cls-2" d="M259.63.63q6.35,0,10.06,3.81a13.42,13.42,0,0,1,3.73,9.83,13,13,0,0,1-3.73,9.59q-3.72,3.72-10.06,3.72t-9.91-3.72a13.35,13.35,0,0,1-3.56-9.59,13.81,13.81,0,0,1,3.56-9.83Q253.29.63,259.63.63Z"/><path class="cls-2" d="M214.3,1.43q12.84,0,12.84,12.84v86.06q0,12.84-12.84,12.84H175.94q-17.91,0-27.66-7.76t-9.75-21.24A26.23,26.23,0,0,1,143,68.87a26.58,26.58,0,0,1,12.36-9.59q-9.51-2.7-14.66-9.51T135.52,33q0-14.89,10.38-23.22t28.3-8.32ZM203.68,19.66H177.52q-9.51,0-13.94,3.64t-4.44,11.1q0,7.27,4.44,10.93T177.52,49h26.16Zm0,47.55H180.22q-18.08,0-18.07,13.94t18.07,13.79h23.46Z"/><path class="cls-2" d="M104.77,0c3.6,0,6.34,1,8.24,3s2.86,4.81,2.86,8.4v91.78c0,3.69-1,6.52-3,8.48s-4.86,2.93-8.56,2.93a13.2,13.2,0,0,1-7.53-1.9,17.76,17.76,0,0,1-5.15-6.18l-33.92-62-33.92,62a17.89,17.89,0,0,1-5.16,6.18,12.84,12.84,0,0,1-7.37,1.9q-5.38,0-8.32-2.93T0,103.19V11.41Q0,0,11.1,0,22.35,0,22.35,11.41V69.58l26-46.75a15.53,15.53,0,0,1,4-4.52A9.51,9.51,0,0,1,58,16.8a9.92,9.92,0,0,1,5.71,1.51,13.39,13.39,0,0,1,4,4.52l26,46.28V11.41Q93.68,0,104.77,0Z"/></g></g></g></svg>