<svg xmlns="http://www.w3.org/2000/svg" width="23.999" height="23.999" viewBox="0 0 23.999 23.999">
  <defs>
    <style>
      .cls-1 {
        fill: #f7f7ff;
      }
    </style>
  </defs>
  <path id="Exclusion_1" data-name="Exclusion 1" class="cls-1" d="M17,24H7a7.008,7.008,0,0,1-7-7V7A7.008,7.008,0,0,1,7,0H17a7.008,7.008,0,0,1,7,7V17A7.008,7.008,0,0,1,17,24Zm-3.61-8.551c-.038,0-.06.04-.06.11v1.508c0,.081.013.135.082.17a4.517,4.517,0,0,0,2.109.442c1.821,0,2.952-.969,2.952-2.53,0-1.168-.575-1.881-2.121-2.63-1.088-.561-1.272-.82-1.272-1.188,0-.345.284-.747,1.085-.747l0,0a3.666,3.666,0,0,1,1.793.443.187.187,0,0,0,.058.011c.06,0,.1-.042.1-.113V9.51a.22.22,0,0,0-.1-.2,4.876,4.876,0,0,0-1.845-.288,2.538,2.538,0,0,0-2.834,2.427c0,1.156.581,1.885,2.072,2.6,1.064.558,1.273.877,1.273,1.239,0,.515-.41.8-1.155.8a3.784,3.784,0,0,1-2.069-.611A.1.1,0,0,0,13.389,15.449ZM8.368,6.171c-1.037,0-2,.019-2.652.051-.091,0-.23.051-.23.12l0,11.066c0,.085.032.116.118.116H7.194c.084,0,.118-.035.118-.12V13.452c.124,0,.221,0,.323.008.123,0,.261.01.474.01,2.642,0,4.219-1.4,4.219-3.734C12.328,8.4,11.814,6.171,8.368,6.171Zm-.223,5.651c-.409,0-.6,0-.832-.016V7.835C7.5,7.818,7.886,7.8,8.3,7.8c1.407,0,2.182.7,2.182,1.969C10.48,11.132,9.694,11.822,8.145,11.822Z"/>
</svg>
