<svg xmlns="http://www.w3.org/2000/svg" width="23.999" height="23.999" viewBox="0 0 23.999 23.999">
  <defs>
    <style>
      .cls-1 {
        fill: #f7f7ff;
      }
    </style>
  </defs>
  <path id="Exclusion_4" data-name="Exclusion 4" class="cls-1" d="M17,24H7a7.008,7.008,0,0,1-7-7V7A7.008,7.008,0,0,1,7,0H17a7.008,7.008,0,0,1,7,7V17A7.008,7.008,0,0,1,17,24ZM16.775,8.99a4.016,4.016,0,0,0-4.125,4.268c0,2.609,1.422,4.166,3.8,4.166h.024a6.164,6.164,0,0,0,2.632-.6c.062-.031.083-.051.083-.113a7.207,7.207,0,0,1-.052-1.008V6.264c0-.049-.017-.082-.1-.082H17.412a.1.1,0,0,0-.1.1V9.01A4.7,4.7,0,0,0,16.775,8.99ZM8.042,12.97h.021c.456.968.911,1.9,1.213,2.525l.439.9,0,.006.013.027.348.716a.2.2,0,0,0,.216.134h1.79a.082.082,0,0,0,.075-.04.124.124,0,0,0-.014-.124l-2.88-5.533,2.726-5.267a.107.107,0,0,0,.017-.107.085.085,0,0,0-.079-.037H10.274c-.1,0-.132.049-.183.131-.543,1.146-1.25,2.65-1.894,4.117H8.176c-.53-1.175-1.141-2.485-1.923-4.125a.163.163,0,0,0-.185-.112H4.3a.089.089,0,0,0-.08.046.093.093,0,0,0,.018.1l2.725,5.431L4.145,17.125a.1.1,0,0,0-.024.1.088.088,0,0,0,.086.041H5.9a.2.2,0,0,0,.185-.113c.7-1.435,1.371-2.883,1.954-4.186ZM16.6,15.829c-1.327,0-2.088-.967-2.088-2.653,0-1.612.864-2.654,2.2-2.654a1.561,1.561,0,0,1,.6.1v5.091A1.924,1.924,0,0,1,16.6,15.829Z"/>
</svg>
